<svg xmlns="http://www.w3.org/2000/svg" width="22" height="30" viewBox="0 0 22 30" fill="none"><path d="M20.6431 10.7143C20.6431 16.05 11.0003 28.9286 11.0003 28.9286C11.0003 28.9286 1.35742 16.05 1.35742 10.7143C1.35742 8.15682 2.37336 5.70412 4.18175 3.89574C5.99014 2.08735 8.44283 1.07141 11.0003 1.07141C13.5577 1.07141 16.0104 2.08735 17.8188 3.89574C19.6272 5.70412 20.6431 8.15682 20.6431 10.7143V10.7143Z" stroke="currentColor" stroke-width="1.5" stroke-linecap="round" stroke-linejoin="round"></path><path d="M11.0004 13.9286C12.7756 13.9286 14.2147 12.4895 14.2147 10.7143C14.2147 8.93908 12.7756 7.5 11.0004 7.5C9.22522 7.5 7.78613 8.93908 7.78613 10.7143C7.78613 12.4895 9.22522 13.9286 11.0004 13.9286Z" stroke="currentColor" stroke-width="1.5" stroke-linecap="round" stroke-linejoin="round"></path></svg>